# AST/ASF file generated using VICON BodyLanguage
# -----------------------------------------------
:version 1.10
:name VICON
:units
  mass 1.0
  length 0.45
  angle deg
:documentation
   .ast/.asf automatically generated from VICON data using
   VICON BodyBuilder and BodyLanguage model FoxedUp or BRILLIANT.MOD
:root
   order TX TY TZ RX RY RZ
   axis XYZ
   position 0 0 0  
   orientation 0 0 0 
:bonedata
  begin
     id 1 
     name lhipjoint
     direction 0.646657 -0.683706 0.338203 
     length 2.4948 
     axis 0 0 0  XYZ
  end
  begin
     id 2 
     name lfemur
     direction 0.34202 -0.939693 0  
     length 6.79491  
     axis 0 0 20  XYZ
    dof rx ry rz
    limits (-160.0 20.0)
           (-70.0 70.0)
           (-60.0 70.0)
  end
  begin
     id 3 
     name ltibia
     direction 0.34202 -0.939693 0   
     length 7.56807   
     axis 0 0 20   XYZ
    dof rx
    limits (-10.0 170.0)
  end
  begin
     id 4 
     name lfoot
     direction 0.0679796 -0.186772 0.980048   
     length 2.53018   
     axis -90 7.62852e-016 20   XYZ
    dof rx rz
    limits (-45.0 90.0)
           (-70.0 20.0)
  end
  begin
     id 5 
     name ltoes
     direction 1.53625e-011 -4.21881e-011 1   
     length 1.26912   
     axis -90 7.62852e-016 20   XYZ
    dof rx
    limits (-90.0 20.0)
  end
  begin
     id 6 
     name rhipjoint
     direction -0.618868 -0.704065 0.348274   
     length 2.42265  
     axis 0 0 0  XYZ 
  end
  begin
     id 7 
     name rfemur
     direction -0.34202 -0.939693 0   
     length 6.73814   
     axis 0 0 -20   XYZ
    dof rx ry rz
    limits (-160.0 20.0)
           (-70.0 70.0)
           (-70.0 60.0)
  end
  begin
     id 8 
     name rtibia
     direction -0.34202 -0.939693 0   
     length 7.66799   
     axis 0 0 -20   XYZ
    dof rx
    limits (-10.0 170.0)
 end
 begin
     id 9 
     name rfoot
     direction -0.0727352 -0.199838 0.977125   
     length 2.57224  
     axis -90 -7.62852e-016 -20   XYZ
    dof rx rz
    limits (-45.0 90.0)
           (-20.0 70.0)
  end
  begin
     id 10 
     name rtoes
     direction -1.53501e-011 -4.21858e-011 1   
     length 1.28858   
     axis -90 -7.62852e-016 -20   XYZ
    dof rx
    limits (-90.0 20.0)
  end
  begin
     id 11 
     name lowerback
     direction -0.0172471 0.995767 -0.0902851   
     length 2.20206   
     axis 0 0 0   XYZ
    dof rx ry rz
    limits (-20.0 45.0)
           (-30.0 30.0)
           (-30.0 30.0)
  end
  begin
     id 12 
     name upperback
     direction -0.000110737 0.999714 0.0239043   
     length 2.19523   
     axis 0 0 0   XYZ
    dof rx ry rz
    limits (-20.0 45.0)
           (-30.0 30.0)
           (-30.0 30.0)
  end
  begin
     id 13 
     name thorax
     direction 0.00704869 0.997783 0.0661741   
     length 2.21977   
     axis 0 0 0   XYZ
    dof rx ry rz
    limits (-20.0 45.0)
           (-30.0 30.0)
           (-30.0 30.0)
  end
  begin
     id 14 
     name lowerneck
     direction -0.00407501 0.995527 0.0943846   
     length 1.83142   
     axis 0 0 0   XYZ
    dof rx ry rz
    limits (-20.0 45.0)
           (-30.0 30.0)
           (-30.0 30.0)
  end
  begin
     id 15 
     name upperneck
     direction 0.0640586 0.986486 -0.150807   
     length 1.84616   
     axis 0 0 0   XYZ
    dof rx ry rz
    limits (-20.0 45.0)
           (-30.0 30.0)
           (-30.0 30.0)
  end
  begin
     id 16
     name head
     direction 0.0188017 0.99791 -0.0618239  
     length 1.85932  
     axis 0 0 0   XYZ
    dof rx ry rz
    limits (-20.0 45.0)
           (-30.0 30.0)
           (-30.0 30.0)
  end
  begin
     id 17 
     name lclavicle
     direction 0.976074 0.206905 0.066852  
     length 3.81043  
     axis 0 0 0   XYZ
    dof ry rz
    limits (-20.0 10.0)
           (0.0 20.0)
  end
  begin
     id 18 
     name lhumerus
     direction 1 -4.48971e-011 1.86916e-027   
     length 5.37587   
     axis 180 -30 -90   XYZ
    dof rx ry rz
    limits (-60.0 90.0)
           (-90.0 90.0)
           (-90.0 90.0)
  end
  begin
     id 19
     name lradius
     direction 1 -4.48968e-011 1.69187e-027   
     length 3.35977   
     axis 180 -30 -90   XYZ
    dof rx
    limits (-10.0 170.0)
  end
  begin
     id 20
     name lwrist
     direction 1 -4.48968e-011 5.8978e-027   
     length 1.67988   
     axis -3.27506e-015 90 90   XYZ
    dof ry
    limits (-180.0 0.0)
 end
  begin
     id 21 
     name lhand
     direction 1 -4.49028e-011 1.18071e-026   
     length 0.561859   
     axis -7.52654e-015 90 90   XYZ
    dof rx rz
    limits (-90.0 90.0)
           (-45.0 45.0)
  end
  begin
     id 22 
     name lfingers
     direction 1 -4.48927e-011 2.35758e-026   
     length 0.452985   
     axis -1.50534e-014 90 90   XYZ
    dof rx
    limits (0.0 90.0)
  end
  begin
     id 23
     name lthumb
     direction 0.707107 -6.34898e-011 0.707107   
     length 0.650399   
     axis -90 45 5.69224e-014   XYZ
    dof rx rz
    limits (-45.0 45.0)
           (-45.0 45.0)
  end
  begin
     id 24 
     name rclavicle
     direction -0.988403 0.151789 0.00439714   
     length 3.6942  
     axis 0 0 0   XYZ 
    dof ry rz
    limits (-10.0 20.0)
           (-20.0 0.0)
  end
  begin
     id 25 
     name rhumerus
     direction -1 -4.48978e-011 1.62495e-027  
     length 5.22819   
     axis 180 30 90   XYZ
    dof rx ry rz
    limits (-90.0 60.0)
           (-90.0 90.0)
           (-90.0 90.0)
  end
  begin
     id 26 
     name rradius
     direction -1 -4.48961e-011 3.47796e-027   
     length 3.40764   
     axis 180 30 90   XYZ
    dof rx
    limits (-10.0 170.0)
  end
  begin
     id 27 
     name rwrist
     direction -1 -4.48949e-011 5.89602e-027   
     length 1.70382   
     axis -3.27506e-015 -90 -90   XYZ
    dof ry
    limits (-180.0 0.0)
  end
  begin
     id 28
     name rhand
     direction -1 -4.48977e-011 1.17973e-026   
     length 0.583255   
     axis -7.52654e-015 -90 -90   XYZ
    dof rx rz
    limits (-90.0 90.0)
           (-45.0 45.0)
  end
  begin
     id 29
     name rfingers
     direction -1 -4.49099e-011 2.36408e-026   
     length 0.470235   
     axis -1.50534e-014 -90 -90   XYZ
    dof rx
    limits (0.0 90.0)
  end
  begin
     id 30
     name rthumb
     direction -0.707107 -6.35011e-011 0.707107   
     length 0.675167   
     axis -90 -45 -5.69224e-014   XYZ
    dof rx rz
    limits (-45.0 45.0)
           (-45.0 45.0)
  end
:hierarchy
  begin
    root lhipjoint rhipjoint lowerback
    lhipjoint lfemur
    lfemur ltibia
    ltibia lfoot
    lfoot ltoes
    rhipjoint rfemur
    rfemur rtibia
    rtibia rfoot
    rfoot rtoes
    lowerback upperback
    upperback thorax
    thorax lowerneck lclavicle rclavicle
    lowerneck upperneck
    upperneck head
    lclavicle lhumerus
    lhumerus lradius
    lradius lwrist
    lwrist lhand lthumb
    lhand lfingers
    rclavicle rhumerus
    rhumerus rradius
    rradius rwrist
    rwrist rhand rthumb
    rhand rfingers
  end

#!OML:ASF G:\JayActor3\Patient Classification 1\Patient 1\Session 2\male.ASF
:FULLY-SPECIFIED
:DEGREES
1
root 49.8887 16.675 -7.20715 19.0103 -85.8929 -20.9934
lowerback -0.203143 0.341017 -0.397339
upperback 4.26784 0.372292 0.847644
thorax 4.50216 0.125938 1.11035
lowerneck -11.1777 -3.95134 -3.89623
upperneck 6.62083 -5.45538 7.55603
head 4.12062 -2.40385 2.57267
rclavicle 4.29251e-015 1.42876e-015
rhumerus -30.2567 -10.1121 -82.7019
rradius 27.1552
rwrist -1.36239
rhand -20.0319 4.10936
rfingers 7.12502
rthumb 6.30903 -25.7767
lclavicle 4.29251e-015 1.42876e-015
lhumerus -29.4335 8.03954 84.5499
lradius 27.768
lwrist 8.51102
lhand -17.2644 16.5574
lfingers 7.12502
lthumb 8.98018 46.3463
rfemur -8.37432 -0.58599 22.0323
rtibia 33.6643
rfoot -25.2601 -10.1428
rtoes 18.4838
lfemur -3.71718 2.83419 -18.7377
ltibia 23.9848
lfoot -17.1423 11.1987
ltoes -0.604857
2
root 49.8877 16.6751 -7.20683 18.7657 -85.9001 -20.7451
lowerback -0.204515 0.342105 -0.411476
upperback 4.25384 0.374922 0.840558
thorax 4.48822 0.127172 1.11101
lowerneck -11.1401 -3.94558 -3.89388
upperneck 6.61337 -5.44912 7.56179
head 4.11192 -2.40139 2.57515
rclavicle 7.68272e-015 -1.05729e-014
rhumerus -30.2677 -10.102 -82.6852
rradius 27.1469
rwrist -1.37076
rhand -20.0236 4.11201
rfingers 7.12502
rthumb 6.31699 -25.7738
lclavicle 7.68272e-015 -1.05729e-014
lhumerus -29.4578 8.01356 84.5506
lradius 27.7876
lwrist 8.5147
lhand -17.2761 16.5422
lfingers 7.12502
lthumb 8.9689 46.3316
rfemur -8.37639 -0.598273 22.0053
rtibia 33.6728
rfoot -25.354 -10.086
rtoes 18.3316
lfemur -3.70816 2.82029 -18.7645
ltibia 23.9646
lfoot -17.1436 11.2367
ltoes -0.676901
3
root 49.8859 16.6742 -7.20672 18.3295 -85.9101 -20.3147
lowerback -0.221665 0.338179 -0.448652
upperback 4.26783 0.370575 0.835729
thorax 4.51249 0.123435 1.12688
lowerneck -11.1836 -3.95052 -3.90953
upperneck 6.6549 -5.45533 7.56651
head 4.13265 -2.4029 2.57779
rclavicle -7.59109e-015 3.95085e-015
rhumerus -30.2497 -10.081 -82.6693
rradius 27.1481
rwrist -1.35838
rhand -20.0534 4.06933
rfingers 7.12502
rthumb 6.28827 -25.8173
lclavicle -7.59109e-015 3.95085e-015
lhumerus -29.4026 8.061 84.5426
lradius 27.7566
lwrist 8.48187
lhand -17.2459 16.4933
lfingers 7.12502
lthumb 8.99804 46.2814
rfemur -8.36816 -0.631412 21.9634
rtibia 33.6848
rfoot -25.2781 -10.0749
rtoes 18.3791
lfemur -3.68186 2.84165 -18.8011
ltibia 23.9452
lfoot -17.126 11.245
ltoes -0.792167
4
root 49.8849 16.6743 -7.20635 18.2114 -85.9152 -20.1953
lowerback -0.232661 0.344145 -0.455793
upperback 4.25956 0.37939 0.82921
thorax 4.5099 0.127882 1.12455
lowerneck -11.1462 -3.95146 -3.88781
upperneck 6.63961 -5.45945 7.56138
head 4.12136 -2.40577 2.57304
rclavicle 2.55625e-015 6.24929e-015
rhumerus -30.2543 -10.0896 -82.6496
rradius 27.1223
rwrist -1.34887
rhand -20.0487 4.09968
rfingers 7.12502
rthumb 6.29284 -25.7869
lclavicle 2.55625e-015 6.24929e-015
lhumerus -29.4192 8.03019 84.5366
lradius 27.7724
lwrist 8.47319
lhand -17.2677 16.5686
lfingers 7.12502
lthumb 8.97703 46.3576
rfemur -8.36704 -0.648321 21.946
rtibia 33.694
rfoot -25.3094 -10.041
rtoes 18.3559
lfemur -3.67146 2.83683 -18.8146
ltibia 23.9267
lfoot -17.1125 11.2583
ltoes -0.82042
5
root 49.8834 16.6742 -7.20611 17.9559 -85.9197 -19.9422
lowerback -0.243539 0.346032 -0.473862
upperback 4.25787 0.382854 0.822429
thorax 4.51417 0.129122 1.12789
lowerneck -11.1357 -3.95338 -3.87866
upperneck 6.64352 -5.46382 7.55977
head 4.1208 -2.40795 2.57088
rclavicle 8.65956e-015 4.64659e-015
rhumerus -30.2522 -10.0887 -82.6326
rradius 27.1037
rwrist -1.33905
rhand -20.0602 4.11012
rfingers 7.12502
rthumb 6.28168 -25.7767
lclavicle 8.65956e-015 4.64659e-015
lhumerus -29.4107 8.02884 84.5287
lradius 27.7671
lwrist 8.45553
lhand -17.2717 16.5764
lfingers 7.12502
lthumb 8.9732 46.3655
rfemur -8.36218 -0.673408 21.9192
rtibia 33.7048
rfoot -25.3161 -10.0149
rtoes 18.311
lfemur -3.65719 2.84513 -18.8367
ltibia 23.9077
lfoot -17.0843 11.2796
ltoes -0.953114
6
root 49.8819 16.6741 -7.2059 17.6817 -85.9218 -19.6712
lowerback -0.252226 0.347231 -0.492983
upperback 4.25639 0.385413 0.815592
thorax 4.51743 0.129869 1.13171
lowerneck -11.1295 -3.95607 -3.86865
upperneck 6.64906 -5.46919 7.55667
head 4.12143 -2.41056 2.56797
rclavicle 4.94477e-015 -4.83295e-015
rhumerus -30.2498 -10.0893 -82.6157
rradius 27.0839
rwrist -1.32758
rhand -20.0732 4.12066
rfingers 7.12502
rthumb 6.26919 -25.7666
lclavicle 4.94477e-015 -4.83295e-015
lhumerus -29.4019 8.02413 84.5212
lradius 27.7619
lwrist 8.44263
lhand -17.2765 16.5863
lfingers 7.12502
lthumb 8.96857 46.3756
rfemur -8.35456 -0.700658 21.892
rtibia 33.7125
rfoot -25.3186 -9.99449
rtoes 18.2623
lfemur -3.64379 2.85423 -18.8587
ltibia 23.8906
lfoot -17.0517 11.2994
ltoes -1.10296
7
root 49.8803 16.6739 -7.20573 17.4097 -85.9227 -19.4043
lowerback -0.258346 0.347685 -0.512574
upperback 4.25513 0.38693 0.809575
thorax 4.51949 0.130056 1.13658
lowerneck -11.1267 -3.95774 -3.85973
upperneck 6.65432 -5.47298 7.5541
head 4.12248 -2.41231 2.56547
rclavicle -5.70031e-015 -4.21175e-015
rhumerus -30.2479 -10.0885 -82.5986
rradius 27.0645
rwrist -1.31835
rhand -20.0822 4.13301
rfingers 7.12502
rthumb 6.26048 -25.7545
lclavicle -5.70031e-015 -4.21175e-015
lhumerus -29.3958 8.01522 84.5149
lradius 27.7597
lwrist 8.43669
lhand -17.2796 16.5901
lfingers 7.12502
lthumb 8.96551 46.3796
rfemur -8.34512 -0.727065 21.866
rtibia 33.7212
rfoot -25.3268 -9.976
rtoes 18.21
lfemur -3.62699 2.86266 -18.8795
ltibia 23.8722
lfoot -17.0196 11.3169
ltoes -1.24595
8
root 49.8787 16.6737 -7.20562 17.1078 -85.9221 -19.108
lowerback -0.262708 0.346525 -0.536007
upperback 4.25365 0.386339 0.804864
thorax 4.52033 0.129023 1.14485
lowerneck -11.125 -3.95971 -3.85674
upperneck 6.66096 -5.47652 7.55373
head 4.12435 -2.41393 2.56459
rclavicle -4.2397e-016 3.13086e-015
rhumerus -30.2476 -10.084 -82.5804
rradius 27.0482
rwrist -1.31029
rhand -20.0887 4.14272
rfingers 7.12502
rthumb 6.25415 -25.745
lclavicle -4.2397e-016 3.13086e-015
lhumerus -29.3909 8.00644 84.5099
lradius 27.7576
lwrist 8.43463
lhand -17.2764 16.5832
lfingers 7.12502
lthumb 8.96868 46.3726
rfemur -8.33502 -0.754007 21.8388
rtibia 33.7305
rfoot -25.3335 -9.95943
rtoes 18.1664
lfemur -3.60746 2.87197 -18.9013
ltibia 23.8525
lfoot -16.9908 11.3268
ltoes -1.3673
9
root 49.877 16.6734 -7.20556 16.8085 -85.9209 -18.8136
lowerback -0.265815 0.344283 -0.560486
upperback 4.25164 0.384298 0.801039
thorax 4.51992 0.12722 1.15455
lowerneck -11.1278 -3.96101 -3.8568
upperneck 6.67007 -5.47891 7.55488
head 4.12776 -2.41483 2.56469
rclavicle -3.75206e-015 7.03201e-015
rhumerus -30.2497 -10.0745 -82.5629
rradius 27.0372
rwrist -1.30822
rhand -20.089 4.15001
rfingers 7.12502
rthumb 6.25388 -25.7377
lclavicle -3.75206e-015 7.03201e-015
lhumerus -29.3881 7.99614 84.5053
lradius 27.7588
lwrist 8.43702
lhand -17.2693 16.5732
lfingers 7.12502
lthumb 8.97551 46.3623
rfemur -8.32566 -0.779715 21.8125
rtibia 33.7401
rfoot -25.3408 -9.94341
rtoes 18.1348
lfemur -3.58634 2.88014 -18.9223
ltibia 23.8319
lfoot -16.9693 11.3316
ltoes -1.45423
10
root 49.8753 16.6731 -7.20549 16.4931 -85.9201 -18.503
lowerback -0.270588 0.341401 -0.586441
upperback 4.24983 0.381449 0.797258
thorax 4.52069 0.124953 1.1651
lowerneck -11.1303 -3.96206 -3.8611
upperneck 6.67981 -5.48064 7.55885
head 4.1315 -2.41536 2.56638
rclavicle 1.36098e-014 6.47293e-015
rhumerus -30.2531 -10.0612 -82.5463
rradius 27.0307
rwrist -1.309
rhand -20.0842 4.14864
rfingers 7.12502
rthumb 6.25857 -25.7389
lclavicle 1.36098e-014 6.47293e-015
lhumerus -29.3874 7.98081 84.5018
lradius 27.763
lwrist 8.44489
lhand -17.2638 16.5685
lfingers 7.12502
lthumb 8.98078 46.3574
rfemur -8.31625 -0.805492 21.7846
rtibia 33.7504
rfoot -25.3448 -9.92699
rtoes 18.1165
lfemur -3.56215 2.88612 -18.9446
ltibia 23.8106
lfoot -16.959 11.3257
ltoes -1.47974
11
root 49.8736 16.6728 -7.20543 16.207 -85.9193 -18.2199
lowerback -0.276575 0.338569 -0.610959
upperback 4.24697 0.378654 0.793891
thorax 4.52107 0.122777 1.17528
lowerneck -11.1307 -3.96274 -3.86585
upperneck 6.68823 -5.48187 7.56369
head 4.13448 -2.41569 2.5685
rclavicle 3.68606e-015 2.13694e-015
rhumerus -30.2589 -10.0436 -82.5322
rradius 27.0283
rwrist -1.31384
rhand -20.081 4.14362
rfingers 7.12502
rthumb 6.26162 -25.7438
lclavicle 3.68606e-015 2.13694e-015
lhumerus -29.3883 7.96771 84.4969
lradius 27.7671
lwrist 8.45081
lhand -17.2595 16.5572
lfingers 7.12502
lthumb 8.98497 46.3459
rfemur -8.30832 -0.830589 21.7587
rtibia 33.7602
rfoot -25.3483 -9.9082
rtoes 18.103
lfemur -3.54003 2.89321 -18.9647
ltibia 23.7898
lfoot -16.9503 11.3194
ltoes -1.50098
12
root 49.8719 16.6725 -7.20533 15.9577 -85.9187 -17.9712
lowerback -0.284574 0.336677 -0.630415
upperback 4.24343 0.377073 0.789074
thorax 4.52188 0.121445 1.18119
lowerneck -11.1309 -3.96398 -3.86637
upperneck 6.69452 -5.48423 7.56698
head 4.13669 -2.41659 2.56938
rclavicle -1.14829e-014 -4.60932e-015
rhumerus -30.2637 -10.0284 -82.5213
rradius 27.0258
rwrist -1.31913
rhand -20.0777 4.13439
rfingers 7.12502
rthumb 6.26481 -25.753
lclavicle -1.14829e-014 -4.60932e-015
lhumerus -29.3888 7.95051 84.4905
lradius 27.7718
lwrist 8.45611
lhand -17.2626 16.551
lfingers 7.12502
lthumb 8.98194 46.3398
rfemur -8.30303 -0.854397 21.7354
rtibia 33.7691
rfoot -25.3508 -9.8888
rtoes 18.0957
lfemur -3.52148 2.89924 -18.9826
ltibia 23.7708
lfoot -16.9446 11.3116
ltoes -1.51478
13
root 49.8702 16.6723 -7.20525 15.7814 -85.9185 -17.7941
lowerback -0.293498 0.335943 -0.644675
upperback 4.23853 0.376914 0.784948
thorax 4.5218 0.121029 1.18496
lowerneck -11.1241 -3.96559 -3.86667
upperneck 6.69575 -5.48712 7.57148
head 4.13626 -2.41793 2.5707
rclavicle 2.06534e-014 -7.01958e-016
rhumerus -30.2693 -10.0165 -82.5107
rradius 27.0222
rwrist -1.32069
rhand -20.0771 4.12944
rfingers 7.12502
rthumb 6.26541 -25.7579
lclavicle 2.06534e-014 -7.01958e-016
lhumerus -29.3912 7.93317 84.4831
lradius 27.7759
lwrist 8.45945
lhand -17.2692 16.5453
lfingers 7.12502
lthumb 8.97557 46.3344
rfemur -8.29909 -0.874619 21.7177
rtibia 33.776
rfoot -25.3518 -9.86941
rtoes 18.091
lfemur -3.50627 2.90411 -18.9953
ltibia 23.7557
lfoot -16.9432 11.3041
ltoes -1.51445
14
root 49.8689 16.6721 -7.20518 15.6652 -85.917 -17.6754
lowerback -0.301552 0.334669 -0.65483
upperback 4.23347 0.375854 0.782191
thorax 4.52107 0.12029 1.18779
lowerneck -11.1164 -3.96741 -3.86682
upperneck 6.69452 -5.49007 7.57511
head 4.13492 -2.41941 2.57174
rclavicle 1.91097e-015 5.60945e-015
rhumerus -30.2705 -10.0054 -82.5013
rradius 27.0165
rwrist -1.31957
rhand -20.0774 4.12251
rfingers 7.12502
rthumb 6.26506 -25.7648
lclavicle 1.91097e-015 5.60945e-015
lhumerus -29.3928 7.91926 84.4754
lradius 27.7797
lwrist 8.46097
lhand -17.2784 16.5504
lfingers 7.12502
lthumb 8.96672 46.3399
rfemur -8.2976 -0.890787 21.7057
rtibia 33.781
rfoot -25.352 -9.85346
rtoes 18.0891
lfemur -3.49642 2.9058 -19.0033
ltibia 23.745
lfoot -16.9458 11.2951
ltoes -1.49702
